# xmcd
#
# Track frame offsets:
# 150
# 9364
# 34205
# 56607
# 80848
# 101892
# 116756
# 147666
# 175601
# 189462
# 202874
# 221300
# 240354
# 258583
# 286499
#
# Disc length: 4113 seconds
#
#
# Revision: 1
# Processed by: cddbd v1.5.1PL2 Copyright (c) Steve Scherf et al.
# Submitted via: FreeRIP 2.945 
#
DISCID=d7100f0f
DTITLE=Aina - Days Of Rising Doom (The Metal Opera)[CD1]
DYEAR=2003
DGENRE=Hard Rock
TTITLE0=Aina Overture
TTITLE1=Reveelations
TTITLE2=Silver Maiden
TTITLE3=Flight Of Torek
TTITLE4=Naschtok Is Born
TTITLE5=The Beas Within
TTITLE6=The Siege Of Aina
TTITLE7=Talon's Last Hope
TTITLE8=Rape Of Oria
TTITLE9=Son Of Sorvahr
TTITLE10=Serendipity
TTITLE11=Lalae Amer
TTITLE12=Rebellion
TTITLE13=Oriana's Wrath
TTITLE14=Restoration
EXTD=YEAR: 2003
EXTT0=
EXTT1=
EXTT2=
EXTT3=
EXTT4=
EXTT5=
EXTT6=
EXTT7=
EXTT8=
EXTT9=
EXTT10=
EXTT11=
EXTT12=
EXTT13=
EXTT14=
PLAYORDER=
